<svg width="16" height="14" viewBox="0 0 16 14" fill="none" xmlns="http://www.w3.org/2000/svg">
<path fill-rule="evenodd" clip-rule="evenodd" d="M15.947 1.5952C15.3824 1.85619 14.7766 2.03338 14.1412 2.1124C14.7904 1.70534 15.2887 1.05884 15.5218 0.290226C14.9138 0.668548 14.2418 0.941514 13.5263 1.08997C12.9525 0.450653 12.1365 0.0507812 11.2313 0.0507812C9.49635 0.0507812 8.08827 1.52576 8.08827 3.34314C8.08827 3.60174 8.1157 3.85316 8.17056 4.0926C5.55785 3.95612 3.24229 2.64396 1.69249 0.651787C1.42276 1.13786 1.26732 1.70295 1.26732 2.30635C1.26732 3.4485 1.82278 4.45656 2.66626 5.04559C2.15194 5.02883 1.66734 4.88037 1.24218 4.63375C1.24218 4.64811 1.24218 4.66008 1.24218 4.67445C1.24218 6.26915 2.32567 7.60046 3.76346 7.90216C3.50059 7.97639 3.22172 8.01709 2.93599 8.01709C2.73255 8.01709 2.53596 7.99554 2.34395 7.95723C2.74397 9.2646 3.90518 10.2176 5.27897 10.2439C4.20234 11.1275 2.84912 11.6543 1.37476 11.6543C1.12103 11.6543 0.871871 11.6375 0.625 11.6088C2.01479 12.5426 3.66745 13.0885 5.44355 13.0885C11.2244 13.0885 14.3858 8.07217 14.3858 3.72146C14.3858 3.5778 14.3835 3.43652 14.3766 3.29525C14.9915 2.83073 15.5241 2.25127 15.9447 1.59041L15.947 1.5952Z" fill="#060048"/>
</svg>
