<svg width="13" height="13" viewBox="0 0 13 13" fill="none" xmlns="http://www.w3.org/2000/svg">
<path d="M9.75 0H3.25C1.46266 0 0 1.46202 0 3.25V9.75C0 11.5373 1.46266 13 3.25 13H9.75C11.5373 13 13 11.5373 13 9.75V3.25C13 1.46202 11.5373 0 9.75 0ZM6.5 9.20823C5.00402 9.20823 3.79161 7.99532 3.79161 6.5C3.79161 5.00402 5.00402 3.79161 6.5 3.79161C7.99532 3.79161 9.20839 5.00402 9.20839 6.5C9.20839 7.99532 7.99532 9.20823 6.5 9.20823ZM10.0209 3.79161C9.57173 3.79161 9.20839 3.42777 9.20839 2.97911C9.20839 2.53046 9.57173 2.16661 10.0209 2.16661C10.47 2.16661 10.8334 2.53046 10.8334 2.97911C10.8334 3.42777 10.47 3.79161 10.0209 3.79161Z" fill="#060048"/>
</svg>
