<svg width="112" height="40" viewBox="0 0 112 40" fill="none" xmlns="http://www.w3.org/2000/svg">
<circle cx="20" cy="20" r="20" fill="#450190"/>
<path d="M10.49 31V10H14.51L26.9 25.12H24.95V10H29.75V31H25.76L13.34 15.88H15.29V31H10.49Z" fill="white" fill-opacity="0.9"/>
<path d="M51.66 27V13H54.9V24.36H61.92V27H51.66ZM70.2959 27.24C69.1893 27.24 68.1626 27.06 67.2159 26.7C66.2826 26.34 65.4693 25.8333 64.7759 25.18C64.0959 24.5267 63.5626 23.76 63.1759 22.88C62.8026 22 62.6159 21.04 62.6159 20C62.6159 18.96 62.8026 18 63.1759 17.12C63.5626 16.24 64.1026 15.4733 64.7959 14.82C65.4893 14.1667 66.3026 13.66 67.2359 13.3C68.1693 12.94 69.1826 12.76 70.2759 12.76C71.3826 12.76 72.3959 12.94 73.3159 13.3C74.2493 13.66 75.0559 14.1667 75.7359 14.82C76.4293 15.4733 76.9693 16.24 77.3559 17.12C77.7426 17.9867 77.9359 18.9467 77.9359 20C77.9359 21.04 77.7426 22.0067 77.3559 22.9C76.9693 23.78 76.4293 24.5467 75.7359 25.2C75.0559 25.84 74.2493 26.34 73.3159 26.7C72.3959 27.06 71.3893 27.24 70.2959 27.24ZM70.2759 24.48C70.9026 24.48 71.4759 24.3733 71.9959 24.16C72.5293 23.9467 72.9959 23.64 73.3959 23.24C73.7959 22.84 74.1026 22.3667 74.3159 21.82C74.5426 21.2733 74.6559 20.6667 74.6559 20C74.6559 19.3333 74.5426 18.7267 74.3159 18.18C74.1026 17.6333 73.7959 17.16 73.3959 16.76C73.0093 16.36 72.5493 16.0533 72.0159 15.84C71.4826 15.6267 70.9026 15.52 70.2759 15.52C69.6493 15.52 69.0693 15.6267 68.5359 15.84C68.0159 16.0533 67.5559 16.36 67.1559 16.76C66.7559 17.16 66.4426 17.6333 66.2159 18.18C66.0026 18.7267 65.8959 19.3333 65.8959 20C65.8959 20.6533 66.0026 21.26 66.2159 21.82C66.4426 22.3667 66.7493 22.84 67.1359 23.24C67.5359 23.64 68.0026 23.9467 68.5359 24.16C69.0693 24.3733 69.6493 24.48 70.2759 24.48ZM87.1309 27.24C86.0243 27.24 85.0043 27.0667 84.0709 26.72C83.1509 26.36 82.3443 25.8533 81.6509 25.2C80.9709 24.5467 80.4376 23.78 80.0509 22.9C79.6776 22.02 79.4909 21.0533 79.4909 20C79.4909 18.9467 79.6776 17.98 80.0509 17.1C80.4376 16.22 80.9776 15.4533 81.6709 14.8C82.3643 14.1467 83.1776 13.6467 84.1109 13.3C85.0443 12.94 86.0709 12.76 87.1909 12.76C88.4309 12.76 89.5443 12.9667 90.5309 13.38C91.5309 13.7933 92.3709 14.3933 93.0509 15.18L90.9709 17.1C90.4643 16.5667 89.9109 16.1733 89.3109 15.92C88.7109 15.6533 88.0576 15.52 87.3509 15.52C86.6709 15.52 86.0509 15.6267 85.4909 15.84C84.9309 16.0533 84.4443 16.36 84.0309 16.76C83.6309 17.16 83.3176 17.6333 83.0909 18.18C82.8776 18.7267 82.7709 19.3333 82.7709 20C82.7709 20.6533 82.8776 21.2533 83.0909 21.8C83.3176 22.3467 83.6309 22.8267 84.0309 23.24C84.4443 23.64 84.9243 23.9467 85.4709 24.16C86.0309 24.3733 86.6443 24.48 87.3109 24.48C87.9509 24.48 88.5709 24.38 89.1709 24.18C89.7843 23.9667 90.3776 23.6133 90.9509 23.12L92.7909 25.46C92.0309 26.0333 91.1443 26.4733 90.1309 26.78C89.1309 27.0867 88.1309 27.24 87.1309 27.24ZM89.8309 25.04V19.78H92.7909V25.46L89.8309 25.04ZM102.601 27.24C101.494 27.24 100.467 27.06 99.5206 26.7C98.5873 26.34 97.774 25.8333 97.0806 25.18C96.4006 24.5267 95.8673 23.76 95.4806 22.88C95.1073 22 94.9206 21.04 94.9206 20C94.9206 18.96 95.1073 18 95.4806 17.12C95.8673 16.24 96.4073 15.4733 97.1006 14.82C97.794 14.1667 98.6073 13.66 99.5406 13.3C100.474 12.94 101.487 12.76 102.581 12.76C103.687 12.76 104.701 12.94 105.621 13.3C106.554 13.66 107.361 14.1667 108.041 14.82C108.734 15.4733 109.274 16.24 109.661 17.12C110.047 17.9867 110.241 18.9467 110.241 20C110.241 21.04 110.047 22.0067 109.661 22.9C109.274 23.78 108.734 24.5467 108.041 25.2C107.361 25.84 106.554 26.34 105.621 26.7C104.701 27.06 103.694 27.24 102.601 27.24ZM102.581 24.48C103.207 24.48 103.781 24.3733 104.301 24.16C104.834 23.9467 105.301 23.64 105.701 23.24C106.101 22.84 106.407 22.3667 106.621 21.82C106.847 21.2733 106.961 20.6667 106.961 20C106.961 19.3333 106.847 18.7267 106.621 18.18C106.407 17.6333 106.101 17.16 105.701 16.76C105.314 16.36 104.854 16.0533 104.321 15.84C103.787 15.6267 103.207 15.52 102.581 15.52C101.954 15.52 101.374 15.6267 100.841 15.84C100.321 16.0533 99.8606 16.36 99.4606 16.76C99.0606 17.16 98.7473 17.6333 98.5206 18.18C98.3073 18.7267 98.2006 19.3333 98.2006 20C98.2006 20.6533 98.3073 21.26 98.5206 21.82C98.7473 22.3667 99.054 22.84 99.4406 23.24C99.8406 23.64 100.307 23.9467 100.841 24.16C101.374 24.3733 101.954 24.48 102.581 24.48Z" fill="black"/>
</svg>
